<?xml version="1.0" encoding="iso-8859-1"?>
<!-- Generator: Adobe Illustrator 19.0.0, SVG Export Plug-In . SVG Version: 6.00 Build 0)  -->
<svg version="1.1" id="Layer_1" xmlns="http://www.w3.org/2000/svg" xmlns:xlink="http://www.w3.org/1999/xlink" x="0px" y="0px"
	 viewBox="0 0 512.001 512.001" style="enable-background:new 0 0 512.001 512.001;" xml:space="preserve">
<path style="fill:#E0E0D3;" d="M82.228,8.412c-9.253,0-16.823,7.57-16.823,16.823v466.025c0,9.253,6.742,13.38,14.983,9.172
	l17.684-9.032c8.241-4.208,21.724-4.208,29.965,0l17.683,9.032c8.241,4.208,21.724,4.209,29.965,0l17.685-9.032
	c8.241-4.208,21.724-4.208,29.965,0l17.683,9.032c8.241,4.208,21.724,4.209,29.965,0l17.686-9.032
	c8.241-4.208,21.724-4.208,29.965,0l17.683,9.032c8.241,4.208,21.724,4.208,29.965,0l17.684-9.032
	c8.241-4.208,21.724-4.208,29.965,0l17.683,9.032c8.241,4.208,14.983,0.081,14.983-9.172V25.235c0-9.253-7.57-16.823-16.823-16.823
	H82.228z"/>
<g>
	<path style="fill:#5C6670;" d="M302.107,80.79h-184.07c-4.645,0-8.412-3.766-8.412-8.412c0-4.645,3.766-8.412,8.412-8.412h184.07
		c4.645,0,8.411,3.766,8.411,8.412C310.518,77.024,306.752,80.79,302.107,80.79z"/>
	<path style="fill:#5C6670;" d="M235.767,127.717h-117.73c-4.645,0-8.412-3.766-8.412-8.412s3.766-8.412,8.412-8.412h117.73
		c4.645,0,8.412,3.766,8.412,8.412C244.178,123.951,240.412,127.717,235.767,127.717z"/>
	<path style="fill:#5C6670;" d="M302.107,174.643h-184.07c-4.645,0-8.412-3.766-8.412-8.412s3.766-8.412,8.412-8.412h184.07
		c4.645,0,8.411,3.766,8.411,8.412S306.752,174.643,302.107,174.643z"/>
	<path style="fill:#5C6670;" d="M235.767,221.568h-117.73c-4.645,0-8.412-3.766-8.412-8.412c0-4.645,3.766-8.412,8.412-8.412h117.73
		c4.645,0,8.412,3.766,8.412,8.412C244.178,217.802,240.412,221.568,235.767,221.568z"/>
	<path style="fill:#5C6670;" d="M183.83,268.494h-65.793c-4.645,0-8.412-3.766-8.412-8.411c0-4.645,3.766-8.412,8.412-8.412h65.793
		c4.645,0,8.412,3.766,8.412,8.412C192.241,264.728,188.475,268.494,183.83,268.494z"/>
	<path style="fill:#5C6670;" d="M235.767,315.421h-117.73c-4.645,0-8.412-3.766-8.412-8.412s3.766-8.412,8.412-8.412h117.73
		c4.645,0,8.412,3.766,8.412,8.412S240.412,315.421,235.767,315.421z"/>
</g>
<g>
	<path style="fill:#333E48;" d="M394.659,80.79h-36.213c-4.645,0-8.412-3.766-8.412-8.412c0-4.645,3.766-8.412,8.412-8.412h36.213
		c4.645,0,8.412,3.766,8.412,8.412C403.071,77.024,399.305,80.79,394.659,80.79z"/>
	<path style="fill:#333E48;" d="M394.659,127.717h-36.213c-4.645,0-8.412-3.766-8.412-8.412s3.766-8.412,8.412-8.412h36.213
		c4.645,0,8.412,3.766,8.412,8.412S399.305,127.717,394.659,127.717z"/>
	<path style="fill:#333E48;" d="M394.659,174.643h-36.213c-4.645,0-8.412-3.766-8.412-8.412s3.766-8.412,8.412-8.412h36.213
		c4.645,0,8.412,3.766,8.412,8.412S399.305,174.643,394.659,174.643z"/>
	<path style="fill:#333E48;" d="M394.659,221.568h-36.213c-4.645,0-8.412-3.766-8.412-8.412c0-4.645,3.766-8.412,8.412-8.412h36.213
		c4.645,0,8.412,3.766,8.412,8.412C403.071,217.802,399.305,221.568,394.659,221.568z"/>
	<path style="fill:#333E48;" d="M394.659,268.494h-36.213c-4.645,0-8.412-3.766-8.412-8.411c0-4.645,3.766-8.412,8.412-8.412h36.213
		c4.645,0,8.412,3.766,8.412,8.412C403.071,264.728,399.305,268.494,394.659,268.494z"/>
	<path style="fill:#333E48;" d="M394.659,315.421h-36.213c-4.645,0-8.412-3.766-8.412-8.412s3.766-8.412,8.412-8.412h36.213
		c4.645,0,8.412,3.766,8.412,8.412S399.305,315.421,394.659,315.421z"/>
	<path style="fill:#333E48;" d="M377.484,357.468c2.845,0,5.103,2.258,5.103,5.102v1.375c5.298,0.785,10.009,2.355,14.228,4.709
		c1.865,1.08,3.533,2.945,3.533,5.888c0,3.729-2.944,6.574-6.672,6.574c-1.178,0-2.356-0.294-3.435-0.884
		c-2.748-1.473-5.496-2.648-8.145-3.337v14.915c14.915,4.023,21.293,10.108,21.293,21.099c0,10.99-8.438,18.054-20.802,19.428v5.202
		c0,2.844-2.258,5.103-5.103,5.103c-2.845,0-5.102-2.259-5.102-5.103v-5.3c-6.968-0.883-13.543-3.337-19.332-6.868
		c-2.06-1.276-3.337-3.238-3.337-5.888c0-3.827,2.944-6.672,6.771-6.672c1.275,0,2.649,0.491,3.828,1.276
		c4.122,2.649,8.046,4.513,12.56,5.494V403.98c-14.131-3.827-21.097-9.224-21.097-20.902c0-10.793,8.243-18.054,20.607-19.33v-1.179
		C372.382,359.726,374.639,357.468,377.484,357.468z M372.872,389.263v-13.249c-4.71,0.686-6.771,3.043-6.771,6.183
		C366.102,385.238,367.474,387.299,372.872,389.263z M382.096,406.435v13.639c4.612-0.686,6.967-2.846,6.967-6.379
		C389.064,410.457,387.395,408.299,382.096,406.435z"/>
</g>
<rect x="108.611" y="374.582" style="fill:#5C6670;" width="179.008" height="52.642"/>
<path style="fill:#1E252B;" d="M256.002,512c-6.982,0-13.66-1.448-18.809-4.077l-17.684-9.032
	c-2.781-1.421-6.848-2.235-11.156-2.235c-4.308,0-8.374,0.815-11.157,2.236l-17.684,9.032c-5.147,2.629-11.825,4.077-18.807,4.077
	c-6.982,0-13.661-1.448-18.809-4.077l-17.684-9.032c-2.781-1.421-6.848-2.235-11.157-2.235c-4.308,0-8.375,0.815-11.157,2.236
	l-17.684,9.031c-3.339,1.706-6.699,2.571-9.986,2.571c-10.147,0-17.234-7.909-17.234-19.232l0.001-466.028
	C56.993,11.32,68.313,0,82.228,0h347.547c13.915,0,25.235,11.32,25.235,25.235v466.025c0,5.285-1.532,9.905-4.431,13.362
	c-3.175,3.785-7.722,5.87-12.802,5.87h-0.001c-3.287,0-6.647-0.865-9.985-2.569l-17.684-9.032
	c-2.783-1.421-6.848-2.235-11.157-2.235s-8.375,0.815-11.157,2.236l-17.683,9.031c-5.148,2.629-11.828,4.077-18.808,4.077
	s-13.66-1.448-18.808-4.076l-17.684-9.032c-2.783-1.421-6.849-2.235-11.157-2.235c-4.308,0-8.375,0.815-11.157,2.236l-17.684,9.032
	C269.662,510.552,262.983,512,256.002,512z M208.352,479.832c6.98,0,13.66,1.448,18.808,4.076l17.684,9.032
	c2.781,1.421,6.849,2.236,11.157,2.236c4.308,0,8.373-0.815,11.155-2.236l17.685-9.032c5.148-2.629,11.828-4.076,18.808-4.076
	s13.66,1.448,18.808,4.076l17.684,9.032c2.781,1.421,6.848,2.235,11.157,2.235c4.309,0,8.375-0.815,11.157-2.236l17.684-9.031
	c5.148-2.629,11.828-4.077,18.808-4.077s13.66,1.448,18.808,4.076l17.684,9.032c1.288,0.658,2.061,0.729,2.335,0.729l0,0
	c0.16-0.317,0.41-1.09,0.41-2.409V25.233c0-4.639-3.774-8.412-8.412-8.412H82.228c-4.638,0-8.412,3.773-8.412,8.412l0.001,466.025
	c0,1.32,0.25,2.093,0.41,2.409l0,0c0.273,0,1.046-0.072,2.335-0.729l17.684-9.031c5.148-2.629,11.828-4.077,18.808-4.077
	s13.66,1.448,18.808,4.076l17.684,9.032c2.783,1.421,6.849,2.236,11.158,2.236c4.308,0,8.373-0.815,11.155-2.236l17.685-9.032
	C194.693,481.28,201.372,479.832,208.352,479.832z"/>
<g>
</g>
<g>
</g>
<g>
</g>
<g>
</g>
<g>
</g>
<g>
</g>
<g>
</g>
<g>
</g>
<g>
</g>
<g>
</g>
<g>
</g>
<g>
</g>
<g>
</g>
<g>
</g>
<g>
</g>
</svg>
