<?xml version="1.0" encoding="iso-8859-1"?>
<!-- Generator: Adobe Illustrator 19.0.0, SVG Export Plug-In . SVG Version: 6.00 Build 0)  -->
<svg version="1.1" id="Layer_1" xmlns="http://www.w3.org/2000/svg" xmlns:xlink="http://www.w3.org/1999/xlink" x="0px" y="0px"
	 viewBox="0 0 512 512" style="enable-background:new 0 0 512 512;" xml:space="preserve">
<rect x="10.199" y="118.76" style="fill:#E6E6E6;" width="491.602" height="274.481"/>
<polygon style="fill:#F2484B;" points="460.658,195.777 431.13,195.777 431.13,166.248 393.092,166.248 393.092,195.777 
	363.562,195.777 363.562,233.814 393.092,233.814 393.092,263.344 431.13,263.344 431.13,233.814 460.658,233.814 "/>
<path d="M501.801,108.562H10.199C4.567,108.562,0,113.129,0,118.761v274.478c0,5.632,4.567,10.199,10.199,10.199h491.602
	c5.632,0,10.199-4.567,10.199-10.199V118.761C512,113.129,507.433,108.562,501.801,108.562z M491.602,383.041H20.398V128.96h471.203
	V383.041z"/>
<path d="M363.562,244.013h19.331v19.331c0,5.632,4.567,10.199,10.199,10.199h38.038c5.632,0,10.199-4.567,10.199-10.199v-19.331
	h19.33c5.632,0,10.199-4.567,10.199-10.199v-38.038c0-5.632-4.567-10.199-10.199-10.199h-19.33v-19.33
	c0-5.632-4.567-10.199-10.199-10.199h-38.038c-5.632,0-10.199,4.567-10.199,10.199v19.33h-19.331
	c-5.632,0-10.199,4.567-10.199,10.199v38.038C353.363,239.447,357.929,244.013,363.562,244.013z M373.761,205.975h19.331
	c5.632,0,10.199-4.567,10.199-10.199v-19.33h17.64v19.33c0,5.632,4.567,10.199,10.199,10.199h19.33v17.64h-19.33
	c-5.632,0-10.199,4.567-10.199,10.199v19.331h-17.64v-19.331c0-5.632-4.567-10.199-10.199-10.199h-19.331V205.975z"/>
<path d="M66.295,183.38h247.216c5.632,0,10.199-4.567,10.199-10.199s-4.567-10.199-10.199-10.199H66.295
	c-5.632,0-10.199,4.567-10.199,10.199S60.663,183.38,66.295,183.38z"/>
<path d="M66.295,239.73h247.216c5.632,0,10.199-4.567,10.199-10.199s-4.567-10.199-10.199-10.199H66.295
	c-5.632,0-10.199,4.567-10.199,10.199S60.663,239.73,66.295,239.73z"/>
<path d="M66.295,296.079h247.216c5.632,0,10.199-4.567,10.199-10.199c0-5.632-4.567-10.199-10.199-10.199H66.295
	c-5.632,0-10.199,4.567-10.199,10.199C56.096,291.512,60.663,296.079,66.295,296.079z"/>
<path d="M313.307,334.534H273c-5.632,0-10.199,4.567-10.199,10.199c0,5.632,4.567,10.199,10.199,10.199h40.307
	c5.632,0,10.199-4.567,10.199-10.199C323.506,339.102,318.939,334.534,313.307,334.534z"/>
<path d="M235.112,334.534h-11.749c-5.632,0-10.199,4.567-10.199,10.199c0,5.632,4.567,10.199,10.199,10.199h11.749
	c5.632,0,10.199-4.567,10.199-10.199C245.311,339.102,240.744,334.534,235.112,334.534z"/>
<g>
</g>
<g>
</g>
<g>
</g>
<g>
</g>
<g>
</g>
<g>
</g>
<g>
</g>
<g>
</g>
<g>
</g>
<g>
</g>
<g>
</g>
<g>
</g>
<g>
</g>
<g>
</g>
<g>
</g>
</svg>
