<?xml version="1.0" ?><!DOCTYPE svg  PUBLIC '-//W3C//DTD SVG 1.1//EN'  'http://www.w3.org/Graphics/SVG/1.1/DTD/svg11.dtd'><svg enable-background="new 0 0 512 512" height="512px" id="Calque_1" version="1.1" viewBox="0 0 512 512" width="512px" xml:space="preserve" xmlns="http://www.w3.org/2000/svg" xmlns:xlink="http://www.w3.org/1999/xlink"><g><g><g><path d="     M384.879,367.949c0,9.313-7.618,16.931-16.93,16.931H144.051c-9.313,0-16.931-7.618-16.931-16.931V144.05     c0-9.312,7.619-16.931,16.931-16.931h223.898c9.313,0,16.93,7.619,16.93,16.931V367.949z" fill="none" stroke="#000000" stroke-dasharray="32.713,20.4457,1.0223,0,3.0669,32.7131" stroke-linecap="round" stroke-linejoin="round" stroke-miterlimit="10" stroke-width="7"/><line fill="none" stroke="#000000" stroke-linecap="round" stroke-linejoin="round" stroke-miterlimit="10" stroke-width="7" x1="169.229" x2="127.122" y1="187.083" y2="187.083"/><line fill="none" stroke="#000000" stroke-linecap="round" stroke-linejoin="round" stroke-miterlimit="10" stroke-width="7" x1="313.143" x2="270.815" y1="187.083" y2="187.083"/><line fill="none" stroke="#000000" stroke-linecap="round" stroke-linejoin="round" stroke-miterlimit="10" stroke-width="7" x1="384.878" x2="342.772" y1="187.083" y2="187.083"/><line fill="none" stroke="#000000" stroke-linecap="round" stroke-linejoin="round" stroke-miterlimit="10" stroke-width="7" x1="241.186" x2="198.858" y1="187.083" y2="187.083"/></g><path d="    M270.815,199.704c0,5.61-4.549,10.159-10.159,10.159h-9.311c-5.611,0-10.159-4.548-10.159-10.159V174.46    c0-5.61,4.548-10.159,10.159-10.159h9.311c5.61,0,10.159,4.549,10.159,10.159V199.704z" fill="none" stroke="#000000" stroke-linecap="round" stroke-linejoin="round" stroke-miterlimit="10" stroke-width="7"/><path d="    M342.772,199.704c0,5.61-4.549,10.159-10.159,10.159H323.3c-5.609,0-10.157-4.548-10.157-10.159V174.46    c0-5.61,4.548-10.159,10.157-10.159h9.313c5.61,0,10.159,4.549,10.159,10.159V199.704L342.772,199.704z" fill="none" stroke="#000000" stroke-linecap="round" stroke-linejoin="round" stroke-miterlimit="10" stroke-width="7"/><path d="    M198.858,199.704c0,5.61-4.549,10.159-10.159,10.159h-9.311c-5.611,0-10.159-4.548-10.159-10.159V174.46    c0-5.61,4.548-10.159,10.159-10.159h9.311c5.61,0,10.159,4.549,10.159,10.159V199.704z" fill="none" stroke="#000000" stroke-linecap="round" stroke-linejoin="round" stroke-miterlimit="10" stroke-width="7"/></g><rect fill="none" height="122.75" stroke="#000000" stroke-linecap="round" stroke-linejoin="round" stroke-miterlimit="10" stroke-width="7" width="200.632" x="155.684" y="235.259"/><line fill="none" stroke="#000000" stroke-linecap="round" stroke-linejoin="round" stroke-miterlimit="10" stroke-width="7" x1="155.684" x2="356.316" y1="296.634" y2="296.634"/><line fill="none" stroke="#000000" stroke-linecap="round" stroke-linejoin="round" stroke-miterlimit="10" stroke-width="7" x1="256" x2="256" y1="235.259" y2="358.009"/><line fill="none" stroke="#000000" stroke-linecap="round" stroke-linejoin="round" stroke-miterlimit="10" stroke-width="7" x1="204.783" x2="204.783" y1="235.259" y2="358.009"/><line fill="none" stroke="#000000" stroke-linecap="round" stroke-linejoin="round" stroke-miterlimit="10" stroke-width="7" x1="307.216" x2="307.216" y1="235.259" y2="358.009"/></g><g><circle cx="256.001" cy="256" fill="none" r="218.662" stroke="#010101" stroke-dasharray="32.7131,20.4457,1.0223,0,3.0669,32.7131" stroke-linecap="round" stroke-linejoin="round" stroke-width="7"/></g></svg>