<?xml version="1.0" encoding="iso-8859-1"?>
<!-- Generator: Adobe Illustrator 19.0.0, SVG Export Plug-In . SVG Version: 6.00 Build 0)  -->
<svg version="1.1" id="Layer_1" xmlns="http://www.w3.org/2000/svg" xmlns:xlink="http://www.w3.org/1999/xlink" x="0px" y="0px"
	 viewBox="0 0 512 512" style="enable-background:new 0 0 512 512;" xml:space="preserve">
<path style="fill:#D6E3E9;" d="M452.766,116.243H346.549V10.039L452.766,116.243z"/>
<polygon style="fill:#FFFFFF;" points="452.766,116.243 346.549,116.243 346.549,10.039 59.213,10.039 59.213,501.961 
	452.766,501.961 "/>
<path style="fill:#FF1A1A;" d="M255.973,363.32h0.064c51.815-28.797,122.536-82.275,122.536-149.864
	c0-35.777-29.11-64.776-65.02-64.776c-24.95,0-46.615,14.003-57.516,34.551h-0.064h0.031h-0.064
	c-10.901-20.548-32.564-34.551-57.516-34.551c-35.91,0-65.02,29-65.02,64.776c0,67.589,70.719,121.068,122.536,149.864h0.064
	H255.973z"/>
<path style="fill:#D50707;" d="M333.809,151.901c2.041,6.286,3.155,12.986,3.155,19.947c0,67.588-70.719,121.068-122.535,149.864
	h-0.032h-0.032h-0.032c-16.84-9.359-35.675-21.326-53.432-35.536c25.339,33.203,63.655,59.702,95.039,77.144h0.032h0.031h0.032
	c51.815-28.797,122.536-82.275,122.536-149.864C378.572,184.729,359.797,160.385,333.809,151.901z"/>
<path d="M459.495,108.776L353.648,2.94c-0.001-0.001-0.001-0.001-0.001-0.001c-0.316-0.315-0.66-0.602-1.014-0.873
	c-0.081-0.062-0.162-0.122-0.244-0.183c-0.355-0.255-0.725-0.493-1.113-0.7c-0.03-0.017-0.061-0.028-0.091-0.044
	c-0.365-0.191-0.746-0.354-1.136-0.5c-0.081-0.03-0.161-0.06-0.242-0.089c-0.419-0.144-0.845-0.267-1.287-0.354
	c-0.017-0.004-0.035-0.005-0.052-0.008c-0.402-0.078-0.813-0.125-1.231-0.154c-0.117-0.008-0.233-0.014-0.351-0.018
	C346.772,0.014,346.662,0,346.549,0H59.213c-5.545,0-10.039,4.496-10.039,10.039v491.922c0,5.544,4.495,10.039,10.039,10.039
	h393.554c5.545,0,10.039-4.496,10.039-10.039V116.642c0.005-0.134,0.02-0.264,0.02-0.398
	C462.825,113.278,461.54,110.613,459.495,108.776z M356.588,34.274l71.939,71.93h-71.939V34.274z M442.727,491.922H69.252V20.078
	H336.51v96.165c0,5.544,4.495,10.039,10.039,10.039h96.178V491.922z"/>
<path d="M134.59,443.405h-23.027c-5.545,0-10.039,4.495-10.039,10.039c0,5.544,4.495,10.039,10.039,10.039h23.027
	c5.545,0,10.039-4.496,10.039-10.039C144.629,447.9,140.135,443.405,134.59,443.405z"/>
<path d="M353.857,443.405H168.082c-5.545,0-10.039,4.495-10.039,10.039c0,5.544,4.495,10.039,10.039,10.039h185.774
	c5.545,0,10.039-4.496,10.039-10.039C363.896,447.9,359.401,443.405,353.857,443.405z"/>
<path d="M293.669,241.185h-27.64v-27.64c0-5.544-4.495-10.039-10.039-10.039c-5.545,0-10.039,4.496-10.039,10.039v27.64h-27.64
	c-5.545,0-10.039,4.496-10.039,10.039c0,5.545,4.495,10.039,10.039,10.039h27.64v27.64c0,5.545,4.495,10.039,10.039,10.039
	c5.545,0,10.039-4.495,10.039-10.039v-27.64h27.64c5.545,0,10.039-4.495,10.039-10.039
	C303.708,245.681,299.213,241.185,293.669,241.185z"/>
<path d="M255.989,165.423c-14.093-16.807-35.027-26.784-57.564-26.784c-41.388,0-75.059,33.562-75.059,74.815
	c0,32.824,15.006,65.257,44.599,96.396c26.74,28.136,59.949,49.38,83.099,62.245c1.152,0.639,2.452,1.044,3.77,1.196
	c0.37,0.043,0.748,0.065,1.129,0.067c0.005,0.001,0.012,0,0.019,0c0.007,0,0.016,0,0.023,0h0.032c1.707,0,3.385-0.436,4.877-1.264
	c23.149-12.865,56.358-34.109,83.099-62.245c29.594-31.139,44.599-63.57,44.599-96.396c0-41.254-33.672-74.815-75.059-74.815
	C291.016,138.641,270.083,148.618,255.989,165.423z M368.533,213.456c0,27.503-13.146,55.282-39.075,82.563
	c-23.21,24.421-51.93,43.45-73.47,55.8c-21.54-12.35-50.26-31.379-73.47-55.8c-25.928-27.282-39.075-55.06-39.075-82.564
	c0-30.182,24.664-54.737,54.981-54.737c20.446,0,39.087,11.195,48.647,29.217c1.313,2.476,3.613,4.251,6.257,4.974
	c0.838,0.231,1.721,0.356,2.63,0.359c0.003-0.001,0.013,0,0.019,0c0.007-0.001,0.017,0,0.025,0c0.011,0,0.021,0,0.032,0
	c3.716,0,7.128-2.052,8.869-5.334c9.56-18.021,28.201-29.217,48.647-29.217C343.87,158.719,368.533,183.274,368.533,213.456z"/>
<g>
</g>
<g>
</g>
<g>
</g>
<g>
</g>
<g>
</g>
<g>
</g>
<g>
</g>
<g>
</g>
<g>
</g>
<g>
</g>
<g>
</g>
<g>
</g>
<g>
</g>
<g>
</g>
<g>
</g>
</svg>
