<?xml version="1.0" encoding="iso-8859-1"?>
<!-- Generator: Adobe Illustrator 19.0.0, SVG Export Plug-In . SVG Version: 6.00 Build 0)  -->
<svg version="1.1" id="Layer_1" xmlns="http://www.w3.org/2000/svg" xmlns:xlink="http://www.w3.org/1999/xlink" x="0px" y="0px"
	 viewBox="0 0 512 512" style="enable-background:new 0 0 512 512;" xml:space="preserve">
<path style="fill:#FFDA79;" d="M487.178,487.198c-15.841,15.841-41.525,15.841-57.366,0L315.581,372.966l-55.521-55.521
	c23.598-13.997,43.369-33.768,57.366-57.366l55.521,55.521l41.008,41.025l73.224,73.207
	C503.019,445.673,503.019,471.357,487.178,487.198z"/>
<g>
	
		<rect x="324.22" y="335.795" transform="matrix(-0.7071 0.7071 -0.7071 -0.7071 880.6639 364.8008)" style="fill:#80D0E1;" width="81.118" height="57.994"/>
	<path style="fill:#80D0E1;" d="M176.596,12.947c-90.392,0-163.668,73.276-163.668,163.668
		c0,127.127,138.731,205.196,247.131,140.829c23.598-13.997,43.369-33.768,57.366-57.366
		C381.808,151.651,303.697,12.947,176.596,12.947z M60.865,176.616c0-63.916,51.815-115.731,115.731-115.731
		c63.933,0,115.749,51.815,115.749,115.731c0,63.933-51.815,115.749-115.749,115.749C112.68,292.364,60.865,240.549,60.865,176.616z
		"/>
	<path style="fill:#80D0E1;" d="M292.345,176.616c0,63.933-51.815,115.749-115.749,115.749
		c-63.916,0-115.731-51.815-115.731-115.749c0-63.916,51.815-115.731,115.731-115.731C240.529,60.884,292.345,112.7,292.345,176.616
		z"/>
</g>
<path style="fill:#FFFFFF;" d="M292.345,176.616c0,63.933-51.815,115.749-115.749,115.749c-63.916,0-115.731-51.815-115.731-115.749
	c0-63.916,51.815-115.731,115.731-115.731C240.529,60.884,292.345,112.7,292.345,176.616z"/>
<g>
	<path style="fill:#58595B;" d="M496.319,420.689L333.444,257.812C394.211,140.511,308.648,0.019,176.595,0.019
		C79.221,0.019,0,79.24,0,176.616c0,132.072,140.51,217.602,257.793,156.846l162.879,162.877c20.854,20.854,54.791,20.857,75.648,0
		h0.002C517.223,475.437,517.23,441.598,496.319,420.689z M333.871,372.966l39.077-39.075l22.726,22.726l-39.075,39.075
		L333.871,372.966z M25.856,176.616c0-83.118,67.62-150.74,150.739-150.74c117.047,0,188.892,127.939,129.713,227.607
		c-12.88,21.712-31.308,40.07-52.843,52.843c-0.002,0-0.003,0.002-0.003,0.002c-0.002,0-0.002,0.002-0.002,0.002
		C153.64,365.599,25.856,293.48,25.856,176.616z M319.463,280.462c0.009-0.012,0.017-0.024,0.028-0.036l35.18,35.18l-39.084,39.082
		l-35.178-35.178C295.294,308.569,308.303,295.783,319.463,280.462z M478.037,478.057c-10.775,10.772-28.309,10.775-39.084,0
		l-64.078-64.078l39.084-39.082l64.076,64.076C488.837,449.774,488.838,467.252,478.037,478.057z"/>
	<path style="fill:#58595B;" d="M305.273,176.616c0-70.944-57.724-128.659-128.677-128.659
		c-70.942,0-128.659,57.716-128.659,128.659c0,70.952,57.716,128.677,128.659,128.677
		C247.547,305.292,305.273,247.568,305.273,176.616z M176.595,279.436c-56.687,0-102.803-46.125-102.803-102.821
		c0-56.687,46.117-102.803,102.803-102.803c56.697,0,102.821,46.117,102.821,102.803
		C279.417,233.311,233.292,279.436,176.595,279.436z"/>
</g>
<path style="fill:#FF7876;" d="M191.993,143.377l-15.388,15.388l-15.388-15.388c-10.947-10.947-28.698-10.947-39.646,0l0,0
	c-10.947,10.947-10.947,28.698,0,39.646c0.757,0.757,48.373,48.373,48.158,48.158c3.797,3.797,9.955,3.797,13.752,0
	c0.477-0.479,49.45-49.45,48.158-48.158c10.947-10.947,10.947-28.698,0-39.646l0,0C220.691,132.43,202.94,132.43,191.993,143.377z"
	/>
<g>
</g>
<g>
</g>
<g>
</g>
<g>
</g>
<g>
</g>
<g>
</g>
<g>
</g>
<g>
</g>
<g>
</g>
<g>
</g>
<g>
</g>
<g>
</g>
<g>
</g>
<g>
</g>
<g>
</g>
</svg>
