<?xml version="1.0" encoding="iso-8859-1"?>
<!-- Generator: Adobe Illustrator 19.0.0, SVG Export Plug-In . SVG Version: 6.00 Build 0)  -->
<svg version="1.1" id="Layer_1" xmlns="http://www.w3.org/2000/svg" xmlns:xlink="http://www.w3.org/1999/xlink" x="0px" y="0px"
	 viewBox="0 0 512 512" style="enable-background:new 0 0 512 512;" xml:space="preserve">
<path style="fill:#E3BB94;" d="M367.998,360.334h-24.219c9.792-7.29,16.219-18.746,16.219-32.284H176L160,343.671h-40.427v88.521
	H160L176,447.814h111.997l185.025-47.709c18.239-4.729,30.975-21.025,30.975-39.771H367.998z"/>
<polygon style="fill:#B9937E;" points="287.999,448.19 263.999,448.19 263.999,432.19 287.999,424.19 "/>
<g>
	<rect x="304.003" y="328.185" style="fill:#FFFFFF;" width="32" height="24.005"/>
	<rect x="448.001" y="376.195" style="fill:#FFFFFF;" width="32" height="24.005"/>
</g>
<path style="fill:#B9937E;" d="M323.301,384.19H199.999v-24h143.996l24.003-32l-2.81,19.672
	C362.211,368.707,344.358,384.19,323.301,384.19z"/>
<rect x="8.001" y="344.192" style="fill:#29ABE2;" width="111.995" height="159.994"/>
<rect x="8.001" y="456.187" style="fill:#0071BC;" width="111.995" height="47.999"/>
<polygon style="fill:#FF1D25;" points="399.716,95.811 312.236,95.811 312.236,8.331 216.425,8.331 216.425,95.811 127.903,95.811 
	127.903,192.664 216.425,192.664 216.425,280.144 312.236,280.144 312.236,192.664 399.716,192.664 "/>
<circle style="fill:#FFFFFF;" cx="47.999" cy="456.187" r="15.999"/>
<polyline style="fill:#B20209;" points="312.236,8.331 216.425,8.331 216.425,95.811 127.903,95.811 127.903,192.664 
	216.425,192.664 216.425,280.144 "/>
<path d="M207.81,384.19h-15.621v-23.81h127.81c15.056,0,27.731-10.392,31.231-24.379H179.235l-16,16.001h-27.234V336.38h20.764
	l16-16H367.81v7.811c0,26.363-21.448,47.811-47.811,47.811H207.81V384.19z"/>
<path d="M0.191,336.38V512h127.621V336.38H0.191z M112.19,352.001v96.854H70.651c-3.1-9.55-12.08-16.476-22.65-16.476
	s-19.55,6.927-22.65,16.476h-9.539v-96.854H112.19z M56.191,456.19c0,4.516-3.674,8.189-8.19,8.189s-8.189-3.673-8.189-8.189
	s3.673-8.19,8.189-8.19S56.191,451.674,56.191,456.19z M15.813,496.379v-31.902h9.869C29.054,473.532,37.786,480,48.002,480
	s18.947-6.468,22.32-15.524h41.868v31.902H15.813z"/>
<path d="M319.526,288.475H208.093v-88.521h-87.48V88.521h87.48V0h111.433v88.521h88.521v111.433h-88.521V288.475z M223.715,272.854
	h80.19v-88.521h88.521v-80.19h-88.521V15.621h-80.19v88.521h-87.48v80.19h87.48L223.715,272.854L223.715,272.854z"/>
<path d="M367.998,352.379v15.621h127.27c-2.837,11.857-12.003,21.495-24.206,24.659l-175.488,45.496v-14.295h-15.621v16.518H179.236
	l-16-15.999h-27.234v15.621h20.764l16,15.999h116.227l185.99-48.219c21.683-5.621,36.826-25.191,36.826-47.591v-7.811H367.998z"/>
<g>
</g>
<g>
</g>
<g>
</g>
<g>
</g>
<g>
</g>
<g>
</g>
<g>
</g>
<g>
</g>
<g>
</g>
<g>
</g>
<g>
</g>
<g>
</g>
<g>
</g>
<g>
</g>
<g>
</g>
</svg>
