<?xml version="1.0" encoding="iso-8859-1"?>
<!-- Generator: Adobe Illustrator 19.0.0, SVG Export Plug-In . SVG Version: 6.00 Build 0)  -->
<svg version="1.1" id="Layer_1" xmlns="http://www.w3.org/2000/svg" xmlns:xlink="http://www.w3.org/1999/xlink" x="0px" y="0px"
	 viewBox="0 0 512 512" style="enable-background:new 0 0 512 512;" xml:space="preserve">
<polygon style="fill:#CBBBA0;" points="175.94,7.813 464.157,7.813 464.157,504.187 247.994,504.187 247.994,239.988 
	175.94,239.988 "/>
<rect x="296.029" y="464.154" style="fill:#FFFFFF;" width="120.091" height="40.031"/>
<g>
	<rect x="296.029" y="416.12" style="fill:#F9B233;" width="120.091" height="48.034"/>
	<rect x="175.521" y="7.813" style="fill:#F9B233;" width="288.643" height="24.022"/>
</g>
<rect x="47.844" y="239.984" style="fill:#CBBBA0;" width="200.148" height="264.204"/>
<rect x="119.893" y="424.131" style="fill:#FFFFFF;" width="56.042" height="80.06"/>
<g>
	<rect x="47.844" y="472.165" style="fill:#ED7149;" width="72.057" height="32.024"/>
	<rect x="416.12" y="472.165" style="fill:#ED7149;" width="48.034" height="32.024"/>
	<rect x="177.282" y="472.165" style="fill:#ED7149;" width="118.747" height="32.024"/>
</g>
<g>
	<rect x="79.87" y="272.017" style="fill:#FFFFFF;" width="136.102" height="32.024"/>
	<rect x="79.87" y="336.063" style="fill:#FFFFFF;" width="136.102" height="32.024"/>
</g>
<rect x="63.858" y="111.892" style="fill:#ED7149;" width="168.125" height="96.069"/>
<g>
	<rect x="247.995" y="223.972" style="fill:#FFFFFF;" width="184.137" height="32.024"/>
	<rect x="247.995" y="296.029" style="fill:#FFFFFF;" width="184.137" height="32.024"/>
	<rect x="231.983" y="151.926" style="fill:#FFFFFF;" width="200.148" height="32.024"/>
	<rect x="207.961" y="79.87" style="fill:#FFFFFF;" width="224.17" height="32.024"/>
	<polygon style="fill:#FFFFFF;" points="167.933,152.115 151.728,152.115 151.728,135.91 136.102,135.91 136.102,152.115 
		119.897,152.115 119.897,167.741 136.102,167.741 136.102,183.946 151.728,183.946 151.728,167.741 167.933,167.741 	"/>
	<rect x="127.904" y="392.296" style="fill:#FFFFFF;" width="40.03" height="15.626"/>
	<rect x="312.04" y="384.285" style="fill:#FFFFFF;" width="88.068" height="15.626"/>
</g>
<g>
	<path style="fill:#1D1D1B;" d="M168.127,0v95.879h15.626V39.644h272.591V464.35h-24.211v15.626h24.211v16.398h-32.41v-88.066
		H288.217v88.066h-32.41v-16.398h24.212V464.35h-24.212V232.175h-40.03v-16.398h16.012V104.078H56.042v111.699h16.012v16.398H40.031
		V512h207.963h7.813h216.163V0H168.127z M200.151,232.175h-16.398v-16.398h16.398V232.175z M71.668,119.704h144.495v80.447H71.668
		V119.704z M87.681,215.777h80.447v16.398H87.681V215.777z M168.127,496.374h-40.416V431.94h40.416V496.374z M183.753,496.374
		v-80.06h-71.668v80.06H55.657v-16.398h48.229V464.35H55.657V247.801h184.524V464.35h-48.229v15.626h48.229v16.398L183.753,496.374
		L183.753,496.374z M408.308,456.344H303.843v-8.392h104.464v8.392H408.308z M408.308,423.934v8.392H303.843v-8.392H408.308z
		 M303.843,471.97h104.464v24.405H303.843V471.97z M183.753,24.018v-8.392h272.591v8.392H183.753z"/>
	<path style="fill:#1D1D1B;" d="M223.783,328.248H72.055v47.65h151.728V328.248z M168.127,343.874v16.398h-40.416v-16.398H168.127z
		 M87.681,343.874h24.404v16.398H87.681V343.874z M208.157,360.272h-24.404v-16.398h24.404V360.272z"/>
	<path style="fill:#1D1D1B;" d="M223.783,264.199H72.055v47.65h151.728V264.199z M168.127,279.825v16.398h-40.416v-16.398H168.127z
		 M87.681,279.825h24.404v16.398H87.681V279.825z M208.157,296.223h-24.404v-16.398h24.404V296.223z"/>
	<path style="fill:#1D1D1B;" d="M439.945,72.055H200.151V95.88h15.626v-8.199h56.429v16.398h-32.218v15.626h199.957L439.945,72.055
		L439.945,72.055z M287.832,87.681h56.427v16.398h-56.427V87.681z M424.319,104.078h-64.434V87.681h64.434V104.078z"/>
	<path style="fill:#1D1D1B;" d="M439.945,144.109H239.988v15.626h32.218v16.398h-32.218v15.626h199.957L439.945,144.109
		L439.945,144.109z M287.832,159.735h56.427v16.398h-56.427V159.735z M424.319,176.133h-64.434v-16.398h64.434V176.133z"/>
	<path style="fill:#1D1D1B;" d="M439.945,216.163H264.006v15.626h8.199v16.398h-8.199v15.626h175.939L439.945,216.163
		L439.945,216.163z M287.832,231.789h56.427v16.398h-56.427V231.789z M424.319,248.188h-64.434V231.79h64.434V248.188z"/>
	<path style="fill:#1D1D1B;" d="M264.006,320.241v15.626h175.939v-47.65H264.006v15.626h8.199v16.398H264.006z M424.319,320.241
		h-64.434v-16.398h64.434V320.241z M287.832,303.843h56.427v16.398h-56.427V303.843z"/>
</g>
<g>
</g>
<g>
</g>
<g>
</g>
<g>
</g>
<g>
</g>
<g>
</g>
<g>
</g>
<g>
</g>
<g>
</g>
<g>
</g>
<g>
</g>
<g>
</g>
<g>
</g>
<g>
</g>
<g>
</g>
</svg>
